<?xml version="1.0" standalone="no"?>
<!DOCTYPE svg PUBLIC "-//W3C//DTD SVG 20010904//EN"
 "http://www.w3.org/TR/2001/REC-SVG-20010904/DTD/svg10.dtd">
<svg version="1.0" xmlns="http://www.w3.org/2000/svg"
 width="430.000000pt" height="447.000000pt" viewBox="0 0 430.000000 447.000000"
 preserveAspectRatio="xMidYMid meet">

<g transform="translate(0.000000,447.000000) scale(0.100000,-0.100000)"
fill="#000000" stroke="none">
<path d="M560 4441 c-18 -35 -11 -84 45 -281 38 -134 72 -293 110 -510 31
-173 65 -354 76 -401 31 -133 106 -304 368 -835 l243 -491 -21 -46 c-24 -52
-26 -88 -9 -154 l11 -46 -184 -181 c-113 -111 -255 -265 -365 -396 -334 -398
-824 -1033 -824 -1069 0 -73 78 -13 424 328 171 169 394 385 495 480 100 95
198 190 215 210 73 82 139 197 242 424 41 89 77 162 81 162 5 -1 38 -5 76 -9
63 -8 70 -7 107 18 22 14 47 26 55 26 30 0 260 -93 515 -207 305 -137 323
-145 452 -183 135 -40 325 -79 712 -146 176 -30 402 -71 501 -91 217 -43 376
-64 390 -52 6 6 6 9 0 9 -43 1 -270 40 -520 90 -165 33 -358 69 -430 80 -321
52 -603 115 -761 171 -49 17 -180 74 -292 125 -111 52 -279 124 -373 161 -93
37 -168 72 -165 77 2 6 7 10 12 10 5 -1 189 -54 409 -118 1133 -329 1886 -542
1897 -535 9 6 9 9 -2 13 -24 10 -1978 573 -2257 652 -37 10 -51 18 -47 28 4
11 13 12 37 5 18 -5 158 -36 312 -69 331 -69 618 -132 733 -160 45 -11 252
-83 460 -159 386 -142 990 -346 999 -337 8 8 -40 34 -77 41 -51 11 -568 192
-980 343 -388 142 -373 138 -1032 277 -224 47 -419 90 -433 95 -21 8 -25 16
-25 52 0 53 -28 101 -72 124 -19 10 -65 19 -111 22 -68 4 -80 7 -87 26 -19 52
-113 462 -155 679 -61 319 -125 499 -316 903 -78 165 -170 364 -206 444 -159
355 -192 420 -213 420 -5 0 -14 -9 -20 -19z m80 -107 c67 -161 238 -542 360
-800 177 -374 226 -519 300 -894 33 -162 77 -362 99 -445 35 -129 42 -171 27
-154 -4 4 -168 480 -421 1219 -207 604 -264 757 -272 732 -4 -10 499 -1473
644 -1872 18 -52 32 -106 31 -120 -4 -31 -40 38 -218 415 -68 143 -151 314
-186 380 -106 201 -171 372 -213 560 -6 28 -34 181 -61 340 -33 194 -66 351
-101 475 -63 228 -63 226 -55 246 10 27 31 0 66 -82z m1021 -2400 c52 -49 60
-73 48 -145 -11 -73 -31 -107 -80 -132 -42 -23 -101 -17 -175 17 -47 22 -54
29 -64 66 -32 118 65 235 188 227 41 -3 59 -10 83 -33z m-313 -366 c-63 -70
-1158 -1347 -1241 -1447 -15 -18 -25 -36 -22 -39 3 -3 11 2 18 10 6 9 248 290
537 624 602 698 758 880 782 914 40 59 11 -12 -93 -221 -61 -123 -130 -251
-154 -284 -23 -33 -128 -141 -231 -240 -104 -99 -336 -325 -516 -502 -295
-290 -379 -365 -395 -349 -12 12 441 594 790 1016 178 214 574 623 591 609 5
-5 -24 -45 -66 -91z"/>
</g>
</svg>
